<?xml version="1.0" encoding="utf-8"?>
<!-- Uploaded to: SVG Repo, www.svgrepo.com, Generator: SVG Repo Mixer Tools -->
<svg width="800px" height="800px" viewBox="0 0 1024 1024" fill="#000000" class="icon"  version="1.1" xmlns="http://www.w3.org/2000/svg"><path d="M512.484 735.898c-4.42 0-8.074-3.578-8.074-7.996 0-4.422 3.498-7.998 7.902-7.998h0.172a8 8 0 0 1 7.996 7.998 8.002 8.002 0 0 1-7.996 7.996z" fill="" /><path d="M967.792 1023.766H56.208c-30.862 0-55.974-25.114-55.974-55.974v-479.78c0-29.44 19.74-64.4 44.964-79.598L148.04 346.38c3.734-2.25 8.684-1.078 10.964 2.716a7.988 7.988 0 0 1-2.718 10.98l-102.844 62.034c-20.178 12.158-37.218 42.34-37.218 65.9v479.78c0 22.038 17.93 39.982 39.982 39.982h911.582c22.052 0 39.982-17.946 39.982-39.982v-479.78c0-23.56-17.04-53.742-37.204-65.9a7.99 7.99 0 0 1-2.716-10.978c2.296-3.804 7.28-4.966 10.964-2.718 24.786 14.948 44.948 50.65 44.948 79.598v479.78c0.004 30.86-25.11 55.974-55.97 55.974z" fill="" /><path d="M951.798 975.788a8.044 8.044 0 0 1-3.874-0.998l-351.902-195.146a8.008 8.008 0 0 1-3.124-10.884c2.154-3.858 7.06-5.232 10.87-3.11l351.902 195.146a7.99 7.99 0 0 1 3.124 10.87 7.988 7.988 0 0 1-6.996 4.122zM424.042 691.106a8.04 8.04 0 0 1-3.874-1l-351.84-195.1a8 8 0 0 1-3.124-10.878c2.154-3.866 7.042-5.248 10.87-3.116l351.84 195.1a7.992 7.992 0 0 1 3.124 10.87 7.992 7.992 0 0 1-6.996 4.124zM72.202 975.788a7.986 7.986 0 0 1-6.996-4.124 7.99 7.99 0 0 1 3.124-10.87l351.854-195.116c3.828-2.138 8.714-0.748 10.87 3.11a8.006 8.006 0 0 1-3.124 10.884L76.074 974.79a8.052 8.052 0 0 1-3.872 0.998zM599.96 691.122a7.99 7.99 0 0 1-6.998-4.124 7.992 7.992 0 0 1 3.124-10.87l351.84-195.116c3.81-2.13 8.714-0.75 10.87 3.116a8 8 0 0 1-3.124 10.878l-351.84 195.114a8.028 8.028 0 0 1-3.872 1.002zM512 791.872c-35.282 0-63.97-28.706-63.97-63.968 0-35.282 28.69-63.972 63.97-63.972s63.97 28.692 63.97 63.972c0 47.21-34.452 63.968-63.97 63.968z m0-111.948c-26.458 0-47.978 21.522-47.978 47.978 0 26.456 21.522 47.976 47.978 47.976 11.262 0 47.978-3.466 47.978-47.976 0-26.456-21.52-47.978-47.978-47.978z" fill="" /><path d="M512 759.886c-17.632 0-31.986-14.354-31.986-31.984 0-17.648 14.352-31.986 31.986-31.986s31.984 14.338 31.984 31.986c0 25.238-20.1 31.984-31.984 31.984z m0-47.978c-8.824 0-15.992 7.17-15.992 15.994 0 8.806 7.168 15.992 15.992 15.992 5.966 0 15.992-2.078 15.992-15.992 0-8.824-7.168-15.994-15.992-15.994zM512 687.92a7.99 7.99 0 0 1-7.996-7.996v-7.998c0-4.418 3.576-7.996 7.996-7.996s7.996 3.578 7.996 7.996v7.998A7.99 7.99 0 0 1 512 687.92zM512 791.872a7.99 7.99 0 0 1-7.996-7.996v-7.996c0-4.42 3.576-7.996 7.996-7.996s7.996 3.576 7.996 7.996v7.996a7.992 7.992 0 0 1-7.996 7.996zM488.012 694.354a7.986 7.986 0 0 1-6.936-4.014l-3.998-6.934a8 8 0 0 1 2.936-10.918 7.99 7.99 0 0 1 10.932 2.938l3.998 6.934a7.996 7.996 0 0 1-2.936 10.918 7.92 7.92 0 0 1-3.996 1.076zM539.988 784.376a7.99 7.99 0 0 1-6.936-4.014l-3.998-6.934a7.998 7.998 0 0 1 2.936-10.918c3.81-2.216 8.714-0.904 10.934 2.938l3.998 6.934a7.992 7.992 0 0 1-2.938 10.916 7.924 7.924 0 0 1-3.996 1.078zM470.458 711.908a7.958 7.958 0 0 1-4.014-1.076l-6.904-4a8.006 8.006 0 0 1-2.904-10.932 7.98 7.98 0 0 1 10.932-2.904l6.904 3.998a7.986 7.986 0 0 1 2.904 10.916 7.998 7.998 0 0 1-6.918 3.998zM560.478 763.884a7.94 7.94 0 0 1-4.014-1.078l-6.904-3.998a8.004 8.004 0 0 1-2.904-10.932 7.98 7.98 0 0 1 10.932-2.904l6.904 3.996a7.99 7.99 0 0 1 2.904 10.918 7.996 7.996 0 0 1-6.918 3.998zM464.052 735.898h-7.996a7.992 7.992 0 0 1-7.996-7.996 7.992 7.992 0 0 1 7.996-7.998h7.996a7.994 7.994 0 0 1 7.998 7.998 7.994 7.994 0 0 1-7.998 7.996zM568.006 735.898h-7.996a7.992 7.992 0 0 1-7.996-7.996 7.992 7.992 0 0 1 7.996-7.998h7.996a7.992 7.992 0 0 1 7.996 7.998 7.992 7.992 0 0 1-7.996 7.996zM463.554 763.87a8 8 0 0 1-3.982-14.932l6.936-3.98c3.78-2.204 8.7-0.906 10.916 2.952a7.996 7.996 0 0 1-2.952 10.916l-6.934 3.982a7.986 7.986 0 0 1-3.984 1.062zM553.574 711.908a7.986 7.986 0 0 1-6.934-4.014 7.996 7.996 0 0 1 2.936-10.916l6.936-3.998a7.988 7.988 0 0 1 10.932 2.936 7.994 7.994 0 0 1-2.936 10.916l-6.936 4a7.942 7.942 0 0 1-3.998 1.076zM484.044 784.344a7.946 7.946 0 0 1-4.014-1.078 8.008 8.008 0 0 1-2.906-10.932l3.998-6.902a7.988 7.988 0 0 1 10.934-2.906 7.99 7.99 0 0 1 2.904 10.918l-3.998 6.902a8.002 8.002 0 0 1-6.918 3.998zM536.02 694.322a7.934 7.934 0 0 1-3.998-1.076 7.98 7.98 0 0 1-2.92-10.918l3.998-6.918a7.998 7.998 0 0 1 10.916-2.938 8 8 0 0 1 2.922 10.934l-3.998 6.918a8 8 0 0 1-6.92 3.998zM714.048 401.988a8 8 0 0 1-7.858-6.608L650.656 80.384a7.996 7.996 0 0 1 6.48-9.262c4.216-0.772 8.48 2.124 9.262 6.482L721.936 392.6a7.998 7.998 0 0 1-7.888 9.388zM722.388 449.232a8 8 0 0 1-7.858-6.608c-7.2-40.824-163.58-48.33-260.412-43.456-4.684 0.282-8.168-3.186-8.386-7.59a7.99 7.99 0 0 1 7.576-8.386c27.066-1.366 264.958-11.338 276.966 56.654a7.996 7.996 0 0 1-7.886 9.386z" fill="" /><path d="M414.842 178.666a7.998 7.998 0 0 1-1.376-15.868c67.89-11.986 241.358-58.646 228.85-129.66a7.992 7.992 0 0 1 6.48-9.26c4.248-0.782 8.496 2.124 9.262 6.482 17.836 101.204-231.208 146.316-241.812 148.182a7.746 7.746 0 0 1-1.404 0.124z" fill="" /><path d="M650.172 39.748a7.996 7.996 0 0 1-1.376-15.868l31.484-5.56c4.25-0.766 8.48 2.116 9.262 6.48a7.996 7.996 0 0 1-6.48 9.262l-31.486 5.56a7.732 7.732 0 0 1-1.404 0.126z" fill="" /><path d="M753.874 443.686a7.998 7.998 0 0 1-7.856-6.606L673.8 27.58a7.994 7.994 0 0 1 6.48-9.26c4.25-0.766 8.48 2.116 9.262 6.48l72.218 409.5a8 8 0 0 1-7.886 9.386z" fill="" /><path d="M722.388 449.232a7.996 7.996 0 0 1-1.376-15.868l31.486-5.544c4.232-0.812 8.48 2.116 9.262 6.48a8 8 0 0 1-6.482 9.262l-31.486 5.544a7.748 7.748 0 0 1-1.404 0.126zM296.224 426.944a7.968 7.968 0 0 1-7.87-6.608L249.496 199.844a8 8 0 0 1 6.482-9.262L413.466 162.8c4.232-0.782 8.48 2.124 9.262 6.48a7.998 7.998 0 0 1-6.482 9.262l-149.62 26.402 36.078 204.742 149.62-26.378c4.232-0.782 8.48 2.124 9.262 6.482a7.994 7.994 0 0 1-6.482 9.26l-157.49 27.768a7.426 7.426 0 0 1-1.39 0.126z" fill="" /><path d="M296.224 426.944a7.76 7.76 0 0 1-1.64-0.172l-84.304-17.618a7.97 7.97 0 0 1-6.232-6.434L176.28 245.23a7.964 7.964 0 0 1 3.654-8.184l73.216-45.386a8.064 8.064 0 0 1 7.48-0.508 8 8 0 0 1 4.608 5.912l38.858 220.492a7.968 7.968 0 0 1-2.312 7.13 7.956 7.956 0 0 1-5.56 2.258z m-77.37-32.336l67.454 14.094-34.766-197.23-58.582 36.312 25.894 146.824zM448.17 367.674a8 8 0 0 1-7.856-6.606l-27.77-157.506a7.996 7.996 0 0 1 6.482-9.26c4.28-0.796 8.496 2.124 9.262 6.482l27.768 157.506a7.996 7.996 0 0 1-7.886 9.384z" fill="" /><path d="M221.21 277.778a7.994 7.994 0 0 1-1.374-15.866l15.744-2.782c4.248-0.82 8.48 2.118 9.262 6.482a7.996 7.996 0 0 1-6.482 9.26l-15.742 2.78a7.616 7.616 0 0 1-1.408 0.126zM237.86 372.282a7.994 7.994 0 0 1-1.374-15.868l15.744-2.78c4.232-0.812 8.48 2.118 9.262 6.482a7.996 7.996 0 0 1-6.482 9.26l-15.742 2.78c-0.472 0.088-0.94 0.126-1.408 0.126zM229.52 325.022a7.998 7.998 0 0 1-1.374-15.868l15.774-2.78c4.216-0.812 8.48 2.118 9.262 6.482a7.996 7.996 0 0 1-6.482 9.26l-15.774 2.78a7.594 7.594 0 0 1-1.406 0.126zM271.718 195.8a7.998 7.998 0 0 1-1.374-15.868l31.484-5.56c4.216-0.766 8.48 2.124 9.262 6.482a7.996 7.996 0 0 1-6.48 9.26l-31.486 5.56a7.754 7.754 0 0 1-1.406 0.126zM488.012 624.042c-3.25 0-6.31-2-7.498-5.232l-51.882-140.554a7.994 7.994 0 0 1 4.732-10.278c4.092-1.522 8.73 0.594 10.26 4.732l51.882 140.554a7.992 7.992 0 0 1-4.732 10.278c-0.904 0.344-1.842 0.5-2.762 0.5zM401.614 607.91a7.994 7.994 0 0 1-7.418-5.03l-44.262-110.552a7.996 7.996 0 0 1 14.838-5.95l44.26 110.552a7.994 7.994 0 0 1-4.452 10.402 7.96 7.96 0 0 1-2.966 0.578zM320.292 471.408a8 8 0 0 1-7.856-6.606l-3.124-17.726a7.996 7.996 0 0 1 6.482-9.26c4.264-0.79 8.496 2.124 9.262 6.482l3.124 17.726a7.994 7.994 0 0 1-7.888 9.384z" fill="" /><path d="M320.292 471.408a8.016 8.016 0 0 1-7.872-6.638 7.996 7.996 0 0 1 6.528-9.238l141.842-24.504c4.216-0.726 8.48 2.156 9.246 6.52a8 8 0 0 1-6.528 9.238l-141.84 24.504c-0.456 0.08-0.924 0.118-1.376 0.118z" fill="" /><path d="M462.132 446.904a7.996 7.996 0 0 1-7.856-6.606l-2.78-15.744a7.996 7.996 0 0 1 6.482-9.26c4.264-0.79 8.496 2.124 9.26 6.48l2.78 15.744a7.994 7.994 0 0 1-7.886 9.386z" fill="" /><path d="M812.286 222.272a7.996 7.996 0 0 1-1.376-15.866l173.234-30.548c4.246-0.758 8.48 2.116 9.26 6.48a7.996 7.996 0 0 1-6.48 9.262l-173.234 30.548a7.746 7.746 0 0 1-1.404 0.124z" fill="" /><path d="M772.818 160.332a7.994 7.994 0 0 1-6.546-12.58l100.892-144.106a7.992 7.992 0 0 1 13.088 9.168L779.36 156.92a7.944 7.944 0 0 1-6.542 3.412z" fill="" /><path d="M940.492 394.896a8 8 0 0 1-4.592-1.444l-144.092-100.908a7.992 7.992 0 0 1-1.952-11.136c2.53-3.638 7.512-4.49 11.134-1.968l144.09 100.908a7.988 7.988 0 0 1 1.954 11.134 7.944 7.944 0 0 1-6.542 3.414z" fill="" /><path d="M72.202 911.816a7.99 7.99 0 0 1-7.996-7.996V551.982c0-4.42 3.576-7.998 7.996-7.998s7.996 3.578 7.996 7.998V903.82a7.99 7.99 0 0 1-7.996 7.996z" fill="" /><path d="M951.798 911.816a7.99 7.99 0 0 1-7.996-7.996V551.982c0-4.42 3.576-7.998 7.996-7.998s7.996 3.578 7.996 7.998V903.82a7.99 7.99 0 0 1-7.996 7.996z" fill="" /><path d="M599.96 959.794h-175.92c-4.42 0-7.998-3.576-7.998-7.996s3.578-7.996 7.998-7.996h175.92c4.418 0 7.996 3.576 7.996 7.996s-3.578 7.996-7.996 7.996z" fill="" /><path d="M663.93 927.808h-303.86a7.992 7.992 0 0 1-7.998-7.996 7.994 7.994 0 0 1 7.998-7.996h303.86a7.99 7.99 0 0 1 7.996 7.996 7.988 7.988 0 0 1-7.996 7.996z" fill="" /></svg>